# xmcd
#
# Track frame offsets: 
#        150
#        25924
#        38496
#        49742
#        67179
#        82155
#        99775
#        112002
#        124953
#        141753
#        154420
#        165917
#        174078
#        186585
#        205129
#        217704
#        232060
#        249427
#        265674
#
# Disc length: 3752 seconds
#
# Revision: 2
# Processed by: cddbd v1.5.2PL0 Copyright (c) Steve Scherf et al.
# Submitted via: ExactAudioCopy v0.99pb5
#
DISCID=050ea613
DTITLE=James Last - Ein Leben für die Musik (Jubiläums-Edition) [CD2)
DYEAR=2004
DGENRE=Schlager
TTITLE0=Barcelona
TTITLE1=Brazil
TTITLE2=Spanish Eyes
TTITLE3=Guantanamera
TTITLE4=I Left My Heart In San Francisco
TTITLE5=Granada
TTITLE6=La Bamba
TTITLE7=Tulpen Uit Amsterdam
TTITLE8=Canadian Sunset
TTITLE9=PEnny Lane
TTITLE10=Mull Of Kintyre
TTITLE11=Belfast
TTITLE12=Rasputin
TTITLE13=Macarena
TTITLE14=Havah Nagilah
TTITLE15=The Girl From Ipanema
TTITLE16=Copacabana
TTITLE17=Arrivederci Roma
TTITLE18=Quado Sali Di Cuba
EXTD=
EXTT0=
EXTT1=
EXTT2=
EXTT3=
EXTT4=
EXTT5=
EXTT6=
EXTT7=
EXTT8=
EXTT9=
EXTT10=
EXTT11=
EXTT12=
EXTT13=
EXTT14=
EXTT15=
EXTT16=
EXTT17=
EXTT18=
PLAYORDER=
